<?xml version="1.0" encoding="UTF-8"?>
<svg width="24px" height="24px" viewBox="0 0 24 24" version="1.1" xmlns="http://www.w3.org/2000/svg">
    <g stroke="none" stroke-width="1" fill="none" fill-rule="evenodd">
        <path d="M11 14.9861C11 15.5384 11.4477 15.9861 12 15.9861C12.5523 15.9861 13 15.5384 13 14.9861V7.82831L16.2428 11.0711C16.6333 11.4616 17.2665 11.4616 17.657 11.0711C18.0475 10.6806 18.0475 10.0474 17.657 9.65692L12.7071 4.70703C12.3166 4.31651 11.6834 4.31651 11.2929 4.70703L6.34315 9.65692C5.95262 10.0474 5.95262 10.6806 6.34315 11.0711C6.73367 11.4616 7.36684 11.4616 7.75736 11.0711L11 7.82831V14.9861Z" fill="#2563eb"/>
        <path d="M4 14C4 13.4477 3.55228 13 3 13C2.44772 13 2 13.4477 2 14V18C2 19.6569 3.34315 21 5 21H19C20.6569 21 22 19.6569 22 18V14C22 13.4477 21.5523 13 21 13C20.4477 13 20 13.4477 20 14V18C20 18.5523 19.5523 19 19 19H5C4.44772 19 4 18.5523 4 18V14Z" fill="#2563eb"/>
    </g>
</svg> 